<svg width="40" height="40" viewBox="0 0 40 40" fill="none" xmlns="http://www.w3.org/2000/svg">
<path d="M5.45218 34.548C4.84958 33.9454 4.84958 32.9684 5.45218 32.3658L32.3659 5.45195C32.9685 4.84935 33.9455 4.84935 34.5481 5.45195C35.1506 6.05455 35.1506 7.03156 34.5481 7.63415L7.63437 34.548C7.03178 35.1506 6.05477 35.1506 5.45218 34.548Z" fill="#202226"/>
<path d="M5.45195 5.45198C6.05454 4.84938 7.03154 4.84938 7.63414 5.45198L34.5478 32.3658C35.1504 32.9684 35.1504 33.9455 34.5478 34.5481C33.9452 35.1507 32.9682 35.1507 32.3656 34.5481L5.45195 7.63419C4.84935 7.03159 4.84935 6.05458 5.45195 5.45198Z" fill="#202226"/>
</svg>
